<svg xmlns="http://www.w3.org/2000/svg" xmlns:xlink="http://www.w3.org/1999/xlink" width="9150.67" height="9150.671" viewBox="0 0 9150.67 9150.671">
  <defs>
    <linearGradient id="linear-gradient" x1="0.075" y1="0.327" x2="0.958" y2="0.901" gradientUnits="objectBoundingBox">
      <stop offset="0" stop-color="#076799"/>
      <stop offset="0.071" stop-color="#076799"/>
      <stop offset="0.4" stop-color="#36ace2"/>
      <stop offset="0.62" stop-color="#3cb1ac"/>
      <stop offset="1" stop-color="#3ab778"/>
    </linearGradient>
  </defs>
  <g id="Layer_x0020_1" transform="translate(-5796.665 -9649.665)">
    <g id="_1713289082400">
      <path id="Path_79" data-name="Path 79" d="M14888,14225c0,2494-2022,4516-4516,4516s-4516-2022-4516-4516,2022-4516,4516-4516S14888,11731,14888,14225Z" fill="#fefefe"/>
      <path id="Path_80" data-name="Path 80" d="M14888,14225c0,2494-2022,4516-4516,4516s-4516-2022-4516-4516,2022-4516,4516-4516S14888,11731,14888,14225Z" fill="none" stroke="#0eaab6" stroke-width="118.67"/>
      <path id="Path_81" data-name="Path 81" d="M8661,17382l-80-40,71-47,112,56-231,464-70-35Z" fill="#f37440"/>
      <path id="Path_82" data-name="Path 82" d="M8938,17601c-10,26-9,52,2,76,12,25,30,42,55,51q39,15,75-3c25-11,42-29,51-55q13.5-37.5-3-75c-11-24-30-41-55-51q-37.5-13.5-75,3C8964,17559,8947,17577,8938,17601Zm-93,368-39-60,174-115c-6-2-12-3-16-4-5-2-8-3-11-4-39-14-68-42-86-82-17-41-18-82-3-124,17-44,47-77,90-97,44-20,88-22,132-5,45,16,77,46,98,89,22,44,24,87,9,129q-21,57-93,105Z" fill="#f37440"/>
      <path id="Path_83" data-name="Path 83" d="M9647,17722l-156-37-44,78c4,0,7,1,11,1,3,1,6,2,9,2,49,12,85,38,109,78s30,86,18,138c-13,53-41,92-85,118-43,26-92,33-147,20-67-15-112-59-136-131l69-35c10,31,21,54,35,69,13,14,32,24,55,30,31,7,59,2,84-14,26-17,43-42,50-73,8-32,4-61-12-86-16-26-39-43-69-50q-52.5-12-99,24l-25-6,141-246,208,48Z" fill="#f37440"/>
      <path id="Path_84" data-name="Path 84" d="M9881,17756l-89-10,51-68,124,15-62,514-78-9Z" fill="#f37440"/>
      <path id="Path_85" data-name="Path 85" d="M10425,18034l150-5,2,66-150,5Z" fill="#f37440"/>
      <path id="Path_86" data-name="Path 86" d="M11105,18095l190-35,13,72-342,64,137-247c13-25,24-46,33-64s16-32,20-44c8-23,11-43,8-59-4-24-16-42-36-55s-42-17-67-13c-51,10-75,46-71,108l-76,14c-8-109,36-173,132-191,46-9,88-1,125,22,37,24,60,57,68,101,5,28,3,56-7,86-5,15-13,33-23,55q-16.5,33-42,78Z" fill="#f37440"/>
      <path id="Path_87" data-name="Path 87" d="M11478,17817c17,54,41,97,72,127,30,29,60,40,89,30,29-9,48-34,56-76s3-89-14-143-41-96-71-125q-46.5-45-90-30c-29,9-47,34-55,76C11457,17717,11461,17764,11478,17817Zm-73,22c-25-78-27-147-5-205q28.5-79.5,99-102c46-15,93-6,139,26,52,35,90,93,116,174,26,80,27,150,6,209-20,52-52,86-99,101-46,15-93,6-140-26C11470,17981,11431,17922,11405,17839Z" fill="#f37440"/>
      <path id="Path_88" data-name="Path 88" d="M12073,17798l175-81,31,67-317,145,73-273c7-27,13-50,17-69,4-20,7-36,8-48,3-25,1-44-6-60-10-22-26-36-49-44-22-8-44-7-67,4-48,22-62,62-43,122l-71,32c-34-104-7-177,82-217,43-20,85-23,127-9s72,41,90,81c12,26,17,54,14,85-1,16-4,35-9,59s-13,52-22,86Z" fill="#f37440"/>
      <path id="Path_89" data-name="Path 89" d="M12291,17268l-77,46v-85l107-64,265,445-67,40Z" fill="#f37440"/>
      <path id="Path_90" data-name="Path 90" d="M8288,11453v52c-26-22-52-32-79-32-30,0-55,10-76,32q-30,31.5-30,78c0,31,10,57,30,77,21,21,46,32,76,32,16,0,29-3,40-8,6-2,12-6,18-10a136.558,136.558,0,0,0,21-15v53a161.2,161.2,0,0,1-79,21c-42,0-77-15-107-44-29-29-44-64-44-105,0-37,13-70,37-99q45-54,117-54C8238,11431,8263,11438,8288,11453Z" fill="#076799"/>
      <path id="Path_91" data-name="Path 91" d="M8774,11478H8657v70h113v41H8657v97h117v42H8613v-291h161Z" fill="#076799"/>
      <path id="Path_92" data-name="Path 92" d="M9145,11437v249h85v42H9101v-291Z" fill="#076799"/>
      <path id="Path_93" data-name="Path 93" d="M9703,11478H9586v70h113v41H9586v97h117v42H9542v-291h161Z" fill="#076799"/>
      <path id="Path_94" data-name="Path 94" d="M10074,11686h27c20,0,35-3,44-11,10-9,14-19,14-32s-4-23-14-32c-9-8-25-12-49-12h-22Zm0-124h14c16,0,28-4,36-11,7-7,11-18,11-32s-4-24-12-31c-7-7-19-11-34-11h-15Zm-44,166v-291h44c19,0,35,1,46,4a72.126,72.126,0,0,1,30,16c8,7,14,16,19,27,5,12,8,23,8,34,0,21-8,39-24,53,15,6,27,15,36,28a77.494,77.494,0,0,1,14,45c0,23-8,42-24,58a81.57,81.57,0,0,1-33,20c-13,4-30,6-49,6Z" fill="#076799"/>
      <path id="Path_95" data-name="Path 95" d="M10572,11570h14c41,0,62-15,62-47q0-45-60-45h-16Zm55,34,90,124h-54l-83-119h-8v119h-44v-291h52c38,0,66,7,83,22,19,16,28,37,28,63,0,21-6,39-18,53C10662,11590,10646,11600,10627,11604Z" fill="#076799"/>
      <path id="Path_96" data-name="Path 96" d="M11183,11616l-43-99-45,99Zm18,41h-124l-33,71h-47l144-309,139,309h-48Z" fill="#076799"/>
      <path id="Path_97" data-name="Path 97" d="M11650,11478v250h-44v-250h-67v-41h178v41Z" fill="#076799"/>
      <path id="Path_98" data-name="Path 98" d="M12186,11478h-116v70h113v41h-113v97h116v42h-160v-291h160Z" fill="#076799"/>
      <path id="Path_99" data-name="Path 99" d="M12678,11480l-35,21c-7-11-13-19-19-22-7-4-15-6-25-6-12,0-22,3-30,10s-12,15-12,26c0,14,10,25,32,34l29,12c23,9,40,21,51,35s17,30,17,50c0,27-9,49-27,67-18,17-40,26-67,26-25,0-46-7-62-22-17-15-27-36-31-64l45-9c2,17,5,29,10,35,9,13,23,19,40,19,14,0,25-5,34-14s13-21,13-35c0-5,0-10-2-15-1-5-4-9-7-13-4-4-8-8-13-11-5-4-12-7-19-10l-28-12c-40-17-60-41-60-74,0-22,9-40,25-54,17-15,38-23,63-23C12633,11431,12659,11448,12678,11480Z" fill="#076799"/>
      <path id="Path_100" data-name="Path 100" d="M9186,11237H8929c-39,0-76-9-109-27-37-20-61-51-75-94-13-42-16-89-7-141,9-50,27-96,54-137,30-45,67-78,109-98,24-11,46-19,67-24a349.278,349.278,0,0,1,69-7h238l-16,94H9039c-20,0-37,3-51,8s-29,14-44,28c-16,14-27,27-34,40-8,12-13,28-16,47h346l-16,94H8878c-3,17-4,32-1,45,2,12,8,26,17,39,10,14,20,24,32,31s26,11,44,11h232Z" fill="#f37440"/>
      <path id="Path_101" data-name="Path 101" d="M9686,11237H9495c-56,0-99-7-131-19-40-16-65-44-77-83a133.284,133.284,0,0,1-7-43c-1-14,1-30,4-48l58-335h136l-58,330c-2,15-3,29-1,40,1,11,6,22,13,33,9,17,22,27,38,32s36,8,62,8h168Z" fill="#f37440"/>
      <path id="Path_102" data-name="Path 102" d="M10191,11237H9935c-40,0-77-9-110-27-36-20-61-51-75-94q-19.5-63-6-141c8-50,26-96,54-137,30-45,66-78,109-98q34.5-16.5,66-24a349.278,349.278,0,0,1,69-7h238l-16,94h-220c-20,0-37,3-51,8s-29,14-44,28c-16,14-27,27-34,40-7,12-13,28-16,47h346l-16,94H9883c-3,17-4,32-1,45,2,12,8,26,17,39,10,14,20,24,32,31s26,11,44,11h232Z" fill="#f37440"/>
      <path id="Path_103" data-name="Path 103" d="M10696,11237h-233c-23,0-46-3-68-10q-63-21-90-93c-16-45-19-96-8-155,9-57,29-107,57-150,32-49,71-82,116-99q54-21,105-21h211l-17,101h-219c-36,0-65,20-88,58-18,31-31,70-39,119-8,41-6,76,5,104,13,34,36,51,70,51h215Z" fill="#f37440"/>
      <path id="Path_104" data-name="Path 104" d="M11357,10972c-17,103-58,176-123,220-52,36-123,54-211,54-98,0-167-21-206-62-44-45-57-118-39-218,14-81,48-145,102-191,58-50,137-75,236-75,108,0,181,24,218,72C11365,10814,11373,10881,11357,10972Zm-133-3c9-51,4-93-16-123-21-34-59-51-113-51s-97,18-130,55c-28,30-47,70-55,119-10,57-8,99,5,126,19,38,62,57,130,57,57,0,100-19,130-55C11198,11068,11214,11026,11224,10969Z" fill="#f37440"/>
      <path id="Path_105" data-name="Path 105" d="M11919,11237h-167l-187-390-67,390h-126l91-528h170l181,396,69-396h128Z" fill="#f37440"/>
      <path id="Path_106" data-name="Path 106" d="M7936,11964c-410,0-660,244-744,629h0l-70,333H9110c-128,218-269,379-462,622h0l-833,1059c-321,410-526,815-603,1193h0c-13,71-20,128-20,186h0c0,321,231,404,501,404h937s-645-454,173-1453h0c8,3,18,4,38,6h0l221,2c7-1,49,4,79,29h0c4,6,6,12,9,19h0c31,57-24,121-33,127h0l-164,148c-24,26-25,30-39,50h0l-49,81c-7,11-15,22-3,41h0l28,48h1l28,48c12,20,24,18,38,17h0l94-4c24-3,28-1,63-10h0l208-74c7-3,48-13,85,0h0l15,15h0c48,43,18,122,12,130h0l-104,195c-14,34-13,38-20,61h0l-18,93c-3,13-7,25,11,39h0l43,36h0l44,35c17,15,28,9,41,4h0l87-37c21-10,25-10,56-31h0l170-140c5-5,41-28,79-29h0c7,3,13,6,20,9h0c60,25,59,109,55,119h0l-31,218c-1,37,1,40,3,64h0l14,93c2,14,2,27,24,34h0l53,19h0l53,18c21,8,29-2,39-11h0l70-64c16-17,20-18,42-48h0l113-190c2-7,28-40,64-54h0a149.189,149.189,0,0,1,21,2h0c65,3,93,82,93,92h0l45,217c11,34,14,37,24,59h0l45,82c7,12,12,25,34,24h56l56-1c23,0,28-12,34-24h0l44-84c9-22,12-24,23-59h0l41-217c0-8,12-48,41-73h0l21-6h0c62-19,115,45,119,55h0l116,188c22,29,26,30,43,48h0l71,62c10,9,19,19,40,10h0l52-19h0l53-20c21-7,22-20,23-34h0l13-93c1-24,3-28,1-64h0l-35-218c-3-7-5-49,14-83h0c6-4,11-8,18-12h0c51-40,123,3,130,11h0l173,137c31,20,35,20,57,30h0l87,35c13,5,25,11,42-4h0l42-36h0l43-37c18-14,13-27,11-40h0l-21-92c-7-23-6-27-20-60h0l-108-193c-5-6-21-45-15-83h0a202.784,202.784,0,0,1,13-18h0c35-54,117-39,126-33h0l210,69c36,8,39,7,63,9h0l94,3c14,0,27,2,38-18h0l28-49h0l27-48c12-20,4-30-4-42h0l-50-79c-14-20-15-24-40-50h0l-167-145c-6-3-35-35-42-72h0l6-21h0c14-63,97-77,107-75h0l221-6c36-5,39-7,63-13h0l89-30c13-4,26-7,29-29h0l10-56h0l9-55c4-22-7-29-18-37h0l-74-58c-20-13-22-17-55-33h0l-206-79c-7-2-45-21-64-54h0a149.789,149.789,0,0,1-2-22h0c-8-64,65-105,75-107h0l206-81c32-16,34-20,54-34h0l74-58c11-8,22-15,17-37h0l-9-56h0l-11-55c-3-22-16-25-29-29h0l-90-29c-23-5-26-8-62-12h0l-221-4c-7,1-49-5-79-29h0c-3-6-6-13-9-20h0c-30-57,25-121,35-126h0l165-146c25-27,25-31,40-51h0l49-80c8-11,15-21,4-41h0l-28-48h0l-29-49c-11-20-24-18-37-17h0l-94,3c-24,3-28,2-63,10h0l-209,71c-7,4-48,13-85,0h0c-5-5-9-10-15-15h0c-47-44-17-122-10-131h0l105-194c15-33,14-37,20-60h0l20-92c3-14,7-26-11-40h0l-43-36h0l-43-36c-17-15-29-9-41-4h0l-88,36c-21,10-25,10-56,30h0l-172,139c-5,5-40,28-79,28h0c-6-3-13-6-19-9h0c-60-25-59-109-55-119h0l33-219c2-36,0-39-2-63h0l-13-94c-2-13-2-26-24-33h0l-52-20h0l-53-19c-21-8-30,2-40,11h0l-70,63c-17,17-20,19-42,48h0l-115,189c-2,7-28,40-64,53h0c-7,0-14-1-22-2h0c-64-3-92-82-92-93h0l-43-217c-10-34-14-37-23-59h0l-45-83c-6-12-11-24-34-24h-112c-22,0-27,12-34,24h0l-44,83c-10,22-13,25-23,59h0l-44,217c0,7-10,40-34,65h0c-22,7-38,13-58,17h0c-31,11-60,0-81-15h0c81-138,138-259,157-353h0c13-51,13-90,13-135h0c0-250-160-410-500-410H7936Z" fill-rule="evenodd" fill="url(#linear-gradient)"/>
      <path id="Path_107" data-name="Path 107" d="M10672,15374c-502,0-909-407-909-909s407-908,909-908,909,406,909,908S11174,15374,10672,15374Zm0-2425c-837,0-1516,679-1516,1516,0,838,679,1517,1516,1517,838,0,1516-679,1516-1517C12188,13628,11510,12949,10672,12949Z" fill="#fefefe"/>
      <path id="Path_108" data-name="Path 108" d="M12527,12895c-23,59-69,138-117,207-74,107-118,158-178,158-35,0-42-21-42-33a37.513,37.513,0,0,1,1-10l4-18h32c36,0,58-32,79-62-28-65-50-177-50-264v-22h36c21,0,34,14,35,35,0,7,1,15,1,22,4,56,11,110,27,164,45-60,95-154,118-221h35c17,0,26,6,26,20C12534,12879,12530,12887,12527,12895Z" fill="#076799"/>
      <path id="Path_109" data-name="Path 109" d="M12715,12902c-55,0-80,44-87,70l-3,10h37c26,0,48-1,64-4,25-4,41-14,41-36C12767,12912,12741,12902,12715,12902Zm-57,132h-39v6c0,62,48,67,76,67,41,0,70-9,95-26h3l-4,20c-7,41-50,65-118,65-42,0-123-23-123-131v-2c1-45,37-189,177-189,33,0,110,21,110,96C12835,13005,12792,13034,12658,13034Z" fill="#076799"/>
      <path id="Path_110" data-name="Path 110" d="M13012,13021c-34,0-82,8-82,53,0,25,22,35,47,35,37,0,57-16,64-52l7-36Zm114-41-13,64c-18,88-59,122-149,122-28,0-106-12-106-86,0-62,48-110,174-110h27l3-12c1-5,1-10,1-17,0-30-26-38-59-38-45,0-76,14-102,38h-3l5-28c7-38,55-69,116-69,58,0,109,29,111,93C13131,12950,13129,12964,13126,12980Z" fill="#076799"/>
      <path id="Path_111" data-name="Path 111" d="M13374,12892l-6,26h-3c-11-9-23-11-37-11-43,0-59,33-68,73l-37,179h-23c-25,0-39-12-39-36,0-5,0-11,2-17l30-141c12-57,50-119,124-119,32,0,59,10,59,34C13376,12884,13375,12888,13374,12892Z" fill="#076799"/>
      <path id="Path_112" data-name="Path 112" d="M13621,12912l-5,21h-2c-16-19-51-29-82-29-26,0-68,4-68,38,0,17,13,24,58,37,44,13,76,38,76,77,0,56-45,110-141,110-48,0-90-20-90-53,0-5,0-12,1-17l5-21h1c18,20,57,32,90,32,27,0,62-3,62-42,0-21-21-28-65-42-42-14-69-33-69-72s32-107,142-107c43,0,88,16,88,53C13622,12901,13622,12907,13621,12912Z" fill="#076799"/>
      <path id="Path_113" data-name="Path 113" d="M9031,16384a71.244,71.244,0,0,0-19,57,98.49,98.49,0,0,0,8,28,87.584,87.584,0,0,0,19,24c8,6,17,12,26,15,10,3,19,5,29,4,10,0,20-3,29-7s17-10,25-19a72.01,72.01,0,0,0,15-27,70.166,70.166,0,0,0,3-29c-1-10-4-19-8-28a87.584,87.584,0,0,0-19-24,76.44,76.44,0,0,0-26-15c-10-4-20-5-29-5-10,1-20,3-29,8A68.98,68.98,0,0,0,9031,16384Zm-57-49c14-15,29-27,46-35q27-13.5,54-15a141.914,141.914,0,0,1,57,9c19,6,37,17,54,32,16,14,29,30,38,48,10,18,15,37,17,55,1,19-1,38-7,56a145.823,145.823,0,0,1-29,51,140.805,140.805,0,0,1-46,35c-17,9-35,13-54,14s-38-1-57-8-37-18-54-32c-16-15-29-31-39-49a157.509,157.509,0,0,1-16-55,148.843,148.843,0,0,1,7-55C8951,16367,8961,16351,8974,16335Z" fill="#076799"/>
      <path id="Path_114" data-name="Path 114" d="M9487,16632l-72-47-25,39,65,43-33,50-66-42-59,90-60-39,151-231,132,86Z" fill="#076799"/>
      <path id="Path_115" data-name="Path 115" d="M9817,16849l12,4c21,9,35,4,41-12,7-17,0-29-21-37l-13-5Zm-41,104,15,5c16,7,29,10,38,8,9-1,16-7,19-16,4-10,3-18-2-25-6-8-17-14-34-21l-15-6Zm14-231,99,39c24,9,39,22,47,38s8,35-1,56c-5,13-11,23-19,29a59.813,59.813,0,0,1-30,14q13.5,7.5,21,18a56.4,56.4,0,0,1,11,20,53.39,53.39,0,0,1,2,22,90.167,90.167,0,0,1-6,22c-5,12-11,22-19,30s-17,13-27,17a88.546,88.546,0,0,1-33,3,124.7,124.7,0,0,1-39-10l-107-42Z" fill="#076799"/>
      <path id="Path_116" data-name="Path 116" d="M10159,16848l-34,146c-2,8-3,16-5,24a96.375,96.375,0,0,0,0,24c2,7,5,14,11,19,5,6,14,10,25,13,12,2,21,3,29,0,7-3,13-7,17-13a52.912,52.912,0,0,0,11-21,217.179,217.179,0,0,0,7-24l34-146,69,17-36,155c-10,42-27,70-50,85-24,15-56,17-95,8-40-9-67-26-82-50-14-23-17-56-7-98l37-155Z" fill="#076799"/>
      <path id="Path_117" data-name="Path 117" d="M10591,16989a82.339,82.339,0,0,0-22-16,56.781,56.781,0,0,0-22-7c-9-1-17,1-23,5s-10,9-10,16q-1.5,7.5,3,12a35.661,35.661,0,0,0,11,10c4,2,9,5,15,7s12,5,17,7q34.5,15,48,36c10,14,14,32,12,52a93.528,93.528,0,0,1-11,38c-6,11-13,20-23,27-10,8-22,13-35,16-14,3-29,4-46,3-35-4-66-17-93-40l35-55c10,10,20,19,30,24a71.066,71.066,0,0,0,30,10q18,1.5,27-6c6-4,10-10,10-17,1-4,0-8-1-11a23.613,23.613,0,0,0-6-9c-3-3-8-6-13-8-5-3-12-6-19-10a122.717,122.717,0,0,1-26-12,73.263,73.263,0,0,1-23-16,59.351,59.351,0,0,1-14-23c-4-10-5-21-4-35,2-13,5-25,11-36,5-11,12-19,21-27,9-7,20-12,32-15s25-4,40-3a141.606,141.606,0,0,1,42,10,221.862,221.862,0,0,1,41,20Z" fill="#076799"/>
      <path id="Path_118" data-name="Path 118" d="M10823,16923l2,276h-72l-2-275Z" fill="#076799"/>
      <path id="Path_119" data-name="Path 119" d="M10985,17194l-37-273,71-10,154,150-23-167,71-10,37,273-71,10-154-150,23,167Z" fill="#076799"/>
      <path id="Path_120" data-name="Path 120" d="M11510,16870l-82,24,12,44,78-22,16,58-77,22,13,46,82-23,16,58-151,43-74-265,150-43Z" fill="#076799"/>
      <path id="Path_121" data-name="Path 121" d="M11773,16780c-10-2-19-4-27-4-9,1-16,2-23,5q-13.5,4.5-18,15c-4,6-5,12-2,19,2,4,5,8,9,9,4,2,8,3,14,4a102.84,102.84,0,0,0,17-1c6-1,12-1,18-2q37.5-3,60,9c15,8,26,22,34,41,6,13,8,26,9,38,0,13-3,24-8,35a117.569,117.569,0,0,1-24,31,148.752,148.752,0,0,1-39,23q-48,21-102,9l7-65a104.6,104.6,0,0,0,37,7c12,0,22-1,31-5q16.5-7.5,21-18c4-7,4-14,1-20a14.562,14.562,0,0,0-6-9c-2-2-6-4-10-5a35.491,35.491,0,0,0-15-1h-21c-10,1-19,2-29,2-9,0-19-1-27-4-9-3-17-7-24-14-8-6-14-16-19-28-5-13-8-25-8-37a97.374,97.374,0,0,1,6-34,112.287,112.287,0,0,1,21-29c9-8,21-15,34-21,13-5,26-9,42-11,15-2,30-3,45-1Z" fill="#076799"/>
      <path id="Path_122" data-name="Path 122" d="M12049,16635c-9-1-19-2-27,0a56.781,56.781,0,0,0-22,7c-8,5-13,10-16,17s-3,13,1,19a15.888,15.888,0,0,0,10,8c4,2,8,2,14,2,5-1,11-1,17-3,6-1,12-3,18-4,24-5,44-4,60,1,16,6,29,18,39,37,7,12,12,24,13,36q3,19.5-3,36c-4,12-11,23-20,33-9,11-21,20-36,29q-45,25.5-99,21l-2-65a126.022,126.022,0,0,0,38,2,75.019,75.019,0,0,0,30-9c10-6,17-13,19-20,2-8,2-14-2-20-2-4-4-7-7-8-3-2-6-4-10-4a42.95,42.95,0,0,0-16,0c-5,1-12,2-21,4s-18,4-28,5a131.042,131.042,0,0,1-28,0,90.974,90.974,0,0,1-25-11,72.221,72.221,0,0,1-22-26c-7-12-12-24-13-36a77.5,77.5,0,0,1,2-34c3-11,9-21,17-31s18-18,31-25a160.659,160.659,0,0,1,40-17,233.758,233.758,0,0,1,45-7Z" fill="#076799"/>
      <path id="Path_123" data-name="Path 123" d="M12454,16316l-64,56,31,34,60-53,40,46-60,53,31,36,64-57,40,46-118,103-181-206,117-104Z" fill="#076799"/>
      <path id="Path_124" data-name="Path 124" d="M12649,16213l-154-20,58-67,79,19-24-81,59-67,36,153,179,20-58,65-104-17,25,107-57,66Z" fill="#076799"/>
      <path id="Path_125" data-name="Path 125" d="M12909,15805c-26,2-46,14-60,34-6,9-9,18-11,28a66.038,66.038,0,0,0,0,28c2,10,6,18,11,27a88.268,88.268,0,0,0,22,21,81.253,81.253,0,0,0,29,12,70.833,70.833,0,0,0,29,0c9-2,18-5,26-11a70.006,70.006,0,0,0,21-21c13-19,16-41,10-67l70,46-2,8c-2,11-6,21-9,30-4,9-9,17-14,25-10,16-23,29-39,40-15,10-32,18-50,21-19,4-37,5-57,1a130.21,130.21,0,0,1-55-22q-27-18-42-42a124.337,124.337,0,0,1-21-52,145.77,145.77,0,0,1,1-55,129.866,129.866,0,0,1,21-52,163.786,163.786,0,0,1,21-25c8-7,17-15,27-22Z" fill="#076799"/>
      <path id="Path_126" data-name="Path 126" d="M13011,15542l-38,76,41,20,36-72,54,27-36,72,43,21,38-76,54,27-70,141-246-123,70-141Z" fill="#076799"/>
      <path id="Path_127" data-name="Path 127" d="M13028,15337l201,74,30-81,57,21-54,148-259-95Z" fill="#076799"/>
      <path id="Path_128" data-name="Path 128" d="M13104,15086l208,51,21-83,59,14-38,153-267-66Z" fill="#076799"/>
      <path id="Path_129" data-name="Path 129" d="M13223,14752l-11,84,45,6,11-80,60,8-11,80,48,6,11-85,60,8-20,155-274-35,20-155Z" fill="#076799"/>
      <path id="Path_130" data-name="Path 130" d="M13449,14622l-276,3v-72l167-133-169,1v-71l275-3,1,71-167,134,168-1Z" fill="#076799"/>
      <path id="Path_131" data-name="Path 131" d="M13216,14012c-17,20-24,41-20,65a90.535,90.535,0,0,0,10,29c6,8,12,15,20,21a68.187,68.187,0,0,0,26,11c10,2,20,3,30,1,11-2,21-5,29-10,9-6,16-12,22-20,5-7,9-16,12-25,2-10,3-20,1-30-4-23-16-42-39-57l84-13,4,7c5,10,10,20,13,29s6,18,7,27c3,19,3,37-2,56-4,18-12,35-22,50-11,15-25,28-41,39a135.693,135.693,0,0,1-56,21c-21,3-41,3-60-2-18-6-35-14-50-25-14-11-27-24-37-41-9-16-16-33-19-52-2-11-2-22-2-33a257.045,257.045,0,0,1,6-35Z" fill="#076799"/>
      <path id="Path_132" data-name="Path 132" d="M13114,13750l23,81,45-12-23-78,58-16,23,77,45-13-23-82,58-17,44,151-265,76-44-151Z" fill="#076799"/>
      <path id="Path_133" data-name="Path 133" d="M10281,14800a146.286,146.286,0,0,1-9-13c-35-50-62-101-83-160-7-20-16-47-20-69-9-21-16-102-17-128-5-122,29-250,87-350,31-54,55-82,94-126l27-27c10-8,19-17,29-26,40-33,64-47,109-73,15-8,32-16,48-24-10,1-30,7-41,10-45,12-70,23-111,41-47,21-113,66-153,102-25,24-52,51-74,79-64,81-109,171-131,276-33,159-7,320,72,460,3,6,17,28,19,32a10.69,10.69,0,0,1,3,5c16,23,32,44,50,66a632.547,632.547,0,0,0,44,46c169,162,417,225,647,154,18-6,35-12,52-18-7-1-29,4-38,5-40,4-83,5-123,2-125-8-248-55-346-128-4-4-7-6-12-10-2-1-3-3-6-5-1-1-1,0-3-2l-1-1-1-1c-8-3-36-32-45-40C10334,14863,10292,14818,10281,14800Zm273-292c3-14,15-39,21-51,16-31,38-59,61-83a90.16,90.16,0,0,1,10-9,64.7,64.7,0,0,1,9-8,146.224,146.224,0,0,1,19-16c53-40,127-73,214-73,120,0,223,56,288,142,17,22,43,66,50,93,4,3,13,43,15,51,22,109-9,224-80,306-6,6-11,12-16,17-6,5-12,11-17,16,12-6,27-18,36-26,22-19,42-39,59-62,47-63,77-139,77-228,0-286-302-466-554-336-80,41-139,108-174,191-9,20-25,70-25,96Zm-73,133c5,13,18,37,20,43,0-2-10-39-11-44-11-52-12-103-5-155,13-100,62-193,134-261,47-45,109-83,178-103,134-39,262-14,364,49,47,29,86,67,117,108,38,49,55,89,75,149,1-14-5-41-8-55-14-64-41-125-80-176-9-12-15-17-22-27-12-15-27-27-39-40-3-3-5-4-9-7-113-99-283-134-429-88-46,15-91,37-129,65-8,5-34,25-40,31-16,16-28,26-43,45-26,31-43,57-62,97-28,57-49,136-45,210C10450,14542,10459,14587,10481,14641Zm4,180c-5-2-19-21-23-27a143.092,143.092,0,0,1-11-15c-3-4-8-10-10-15l-2-2a7.688,7.688,0,0,0-2-3c-38-62-63-125-76-199-15-83-8-175,16-250,34-110,90-187,168-256,6-6,14-11,20-16,10-8,56-41,64-42,1-1,1-1,2-1,2-2,9-6,12-7,32-17,68-32,104-42,124-35,270-25,386,33l24,13c2,1,1,2,2-1-2,0-13-9-16-11-17-13-28-22-48-33-131-80-287-103-437-60a598.988,598.988,0,0,0-78,29c-32,15-42,22-70,39-27,16-40,30-61,47l-14,12c-15,15-27,28-40,42a350.3,350.3,0,0,0-24,30,257.1,257.1,0,0,0-22,32,465.954,465.954,0,0,0-38,70c-45,98-59,212-40,321,1,7,9,41,9,44,2,3,2,5,3,8a23.535,23.535,0,0,0,2,8c4,13,10,33,16,45,16,40,31,71,56,106,27,39,29,40,54,68,14,16,35,34,52,49,34,28,71,51,111,70,1,1,2,1,4,2l-38-31C10531,14871,10487,14828,10485,14821Z" fill="#fefefe" fill-rule="evenodd"/>
      <path id="Path_134" data-name="Path 134" d="M10894,14556c41,0,74,33,74,73s-33,73-74,73c-40,0-74-33-74-73S10854,14556,10894,14556Zm0-216c14,0,28,2,43,4v99c34-13,63-42,75-77a303.692,303.692,0,0,1,72,46c-33,72-106,123-190,123-85,0-157-51-191-123,22-18,46-34,72-45a129.6,129.6,0,0,0,76,76v-99C10865,14342,10880,14340,10894,14340Zm217,99c18,22,34,46,46,72-36,12-65,40-77,76h99a286.359,286.359,0,0,1,3,42,300.276,300.276,0,0,1-3,43h-99a117.632,117.632,0,0,0,77,75c-12,27-28,51-47,73-72-33-122-106-122-190A208.91,208.91,0,0,1,11111,14439Zm-27,407c-22,18-46,34-72,46-12-36-41-64-75-77v99c-15,3-29,3-43,3s-29,0-43-3v-99a128.6,128.6,0,0,0-76,77c-26-12-50-28-72-47,34-71,106-121,191-121C10978,14724,11051,14774,11084,14846Zm-406-26c-19-22-35-46-46-73,35-11,64-39,77-75h-100c-2-14-4-28-4-43,0-14,2-29,4-42h100a125.164,125.164,0,0,0-78-76,303.692,303.692,0,0,1,46-72c73,33,124,106,124,191C10801,14714,10750,14787,10678,14820Z" fill="#fefefe" fill-rule="evenodd"/>
    </g>
  </g>
</svg>
