<svg xmlns="http://www.w3.org/2000/svg" xmlns:xlink="http://www.w3.org/1999/xlink" width="444" height="444" viewBox="0 0 444 444">
  <defs>
    <linearGradient id="linear-gradient" x1="0.127" y1="0.87" x2="0.918" y2="0.086" gradientUnits="objectBoundingBox">
      <stop offset="0" stop-color="#c5962d"/>
      <stop offset="0.332" stop-color="#b27f2c"/>
      <stop offset="0.658" stop-color="#f7de7d"/>
      <stop offset="0.926" stop-color="#b27f2c"/>
    </linearGradient>
    <linearGradient id="linear-gradient-2" x1="0.155" y1="0.818" x2="0.906" y2="-0.095" gradientUnits="objectBoundingBox">
      <stop offset="0" stop-color="#c5962d"/>
      <stop offset="0.332" stop-color="#b27f2c"/>
      <stop offset="0.658" stop-color="#f7de7d"/>
      <stop offset="0.926" stop-color="#b27f2c"/>
      <stop offset="0.93" stop-color="#b3812c"/>
      <stop offset="1" stop-color="#cc9f31"/>
    </linearGradient>
    <linearGradient id="linear-gradient-3" x1="0.041" y1="0.793" x2="1.23" y2="0.065" gradientUnits="objectBoundingBox">
      <stop offset="0" stop-color="#a7a9ac"/>
      <stop offset="0.056" stop-color="#a7a9ac"/>
      <stop offset="0.085" stop-color="#a3a4a7"/>
      <stop offset="0.197" stop-color="#96989b"/>
      <stop offset="0.296" stop-color="#929497"/>
      <stop offset="0.42" stop-color="#d0d2d3"/>
      <stop offset="0.531" stop-color="#e6e7e7"/>
      <stop offset="0.74" stop-color="#929497"/>
      <stop offset="0.874" stop-color="#808184"/>
      <stop offset="1" stop-color="#808184"/>
    </linearGradient>
  </defs>
  <g id="_75_Years_Logo_Final" data-name="75 Years Logo_Final" transform="translate(-64.5 -75.6)">
    <path id="Path_53" data-name="Path 53" d="M71.1,297.6c0-118.8,96.6-215.4,215.4-215.4S502,178.8,502,297.6,405.4,513,286.6,513,71.1,416.4,71.1,297.6m-6.6,0c0,122.4,99.6,222,222,222s222-99.6,222-222-99.6-222-222-222-222,99.6-222,222" fill="url(#linear-gradient)"/>
    <path id="Path_54" data-name="Path 54" d="M265.5,274.1l-.2,1.4a3.344,3.344,0,0,0-2.7-1.1,2.7,2.7,0,0,0-2.2,1,3.433,3.433,0,0,0-.8,2.5,2.947,2.947,0,0,0,.8,2.2,3.2,3.2,0,0,0,2.3.8,3.716,3.716,0,0,0,2.2-.8l-.2,1.5a6.048,6.048,0,0,1-2.2.4,3.957,3.957,0,0,1-4.1-4.3,4.79,4.79,0,0,1,1.2-3.3,3.8,3.8,0,0,1,3-1.3,5.939,5.939,0,0,1,2.9,1" fill="#a87d50"/>
    <path id="Path_55" data-name="Path 55" d="M278.1,273.3l-.1,1.2h-3.2l-.3,2.2h3.2l-.2,1.1h-3.1l-.3,2.9h3.1l-.2,1.2h-4.4l1.1-8.6Z" fill="#a87d50"/>
    <path id="Path_56" data-name="Path 56" d="M287.6,273.3l-.9,7.4h2.4l-.2,1.2h-3.7l1.1-8.6Z" fill="#a87d50"/>
    <path id="Path_57" data-name="Path 57" d="M302.2,273.3l-.2,1.2h-3.1l-.3,2.2h3.1l-.1,1.1h-3.1l-.4,2.9h3.2l-.2,1.2h-4.4l1.1-8.6Z" fill="#a87d50"/>
    <path id="Path_58" data-name="Path 58" d="M310.4,273.3H312a3.73,3.73,0,0,1,1.2.2,2.177,2.177,0,0,1,.8.5,2.456,2.456,0,0,1,.5,1.5,2.2,2.2,0,0,1-1.2,2,1.831,1.831,0,0,1,1.5,1.9,2.663,2.663,0,0,1-.3,1.2,2.177,2.177,0,0,1-.7.9,2.01,2.01,0,0,1-.8.4c-.2,0-.3.1-.6.1h-3.1Zm.6,4.8-.3,2.6h.9a3.475,3.475,0,0,0,1.3-.2c.4-.2.5-.6.5-1.2a.749.749,0,0,0-.1-.5c-.1-.1-.2-.3-.3-.4a.764.764,0,0,0-.5-.2c-.2,0-.5-.1-.7-.1H311Zm.5-3.6-.3,2.6h.4c1.1,0,1.6-.5,1.6-1.5,0-.7-.4-1-1.2-1h-.5Z" fill="#a87d50"/>
    <path id="Path_59" data-name="Path 59" d="M325.9,278.3l2.1,3.6h-1.3l-2-3.5h-.5l-.4,3.5h-1.3l1.1-8.5h1.7a4.887,4.887,0,0,1,1.3.1,2.177,2.177,0,0,1,.8.5,2.565,2.565,0,0,1-1.5,4.3m-1.2-3.8-.3,2.7h.6a3.083,3.083,0,0,0,1-.1,2.092,2.092,0,0,0,.6-.4,1.689,1.689,0,0,0,.3-1,.975.975,0,0,0-.4-.9,1.737,1.737,0,0,0-1.2-.3h-.6Z" fill="#a87d50"/>
    <path id="Path_60" data-name="Path 60" d="M337.6,279.9l-1,2h-1.4l4.7-9.2,2.9,9.2h-1.3l-.6-2Zm.5-1.1h2.4l-.9-3Z" fill="#a87d50"/>
    <path id="Path_61" data-name="Path 61" d="M353.2,274.5l-.9,7.4H351l.9-7.4h-2l.1-1.2h5.3l-.2,1.2Z" fill="#a87d50"/>
    <path id="Path_62" data-name="Path 62" d="M367.4,273.3l-.2,1.2h-3.1l-.3,2.2h3.1l-.1,1.1h-3.1l-.4,2.9h3.2l-.2,1.2h-4.4l1.1-8.6Z" fill="#a87d50"/>
    <path id="Path_63" data-name="Path 63" d="M380.1,274.4l-.8.8a1.74,1.74,0,0,0-1.4-.9,1.222,1.222,0,0,0-.9.3,1.268,1.268,0,0,0-.4.9.908.908,0,0,0,.3.7,1.38,1.38,0,0,0,.4.3c.2.1.4.3.6.4a4.9,4.9,0,0,1,1.5,1.2,2.116,2.116,0,0,1,.4,1.4,2.41,2.41,0,0,1-.7,1.8,2.489,2.489,0,0,1-1.9.7,2.726,2.726,0,0,1-1.6-.4,2.651,2.651,0,0,1-.6-.5,5.548,5.548,0,0,1-.6-.8l1-.7a2.9,2.9,0,0,0,.8,1,1.689,1.689,0,0,0,1,.3,1.367,1.367,0,0,0,1.4-1.4,1.136,1.136,0,0,0-.3-.8l-.4-.4a4.348,4.348,0,0,0-.7-.4,3.724,3.724,0,0,1-1.3-1.1,2.5,2.5,0,0,1-.4-1.3,2.06,2.06,0,0,1,.7-1.7,2.41,2.41,0,0,1,1.8-.7,2.133,2.133,0,0,1,1.2.3c.1.2.5.5.9,1" fill="#a87d50"/>
    <path id="Path_64" data-name="Path 64" d="M294.9,265.8H287a8.075,8.075,0,0,1-3.4-.8,4.826,4.826,0,0,1-2.3-2.9,8.843,8.843,0,0,1-.2-4.3,9.816,9.816,0,0,1,1.7-4.2,7.849,7.849,0,0,1,3.3-3,9.608,9.608,0,0,1,2-.7,12.481,12.481,0,0,1,2.1-.2h7.3l-.5,2.9h-6.7a7.773,7.773,0,0,0-1.6.2,8.049,8.049,0,0,0-1.4.9,3.543,3.543,0,0,0-1,1.2,5.27,5.27,0,0,0-.5,1.5h10.6l-.5,2.9H285.3a3.3,3.3,0,0,0,0,1.4,6.118,6.118,0,0,0,.5,1.2,2.836,2.836,0,0,0,1,.9,2.9,2.9,0,0,0,1.4.3h7.1Z" fill="#f36f33"/>
    <path id="Path_65" data-name="Path 65" d="M310.3,265.8h-5.8a10.865,10.865,0,0,1-4-.6,3.969,3.969,0,0,1-2.4-2.5,6.882,6.882,0,0,1-.2-1.3,8.636,8.636,0,0,1,.1-1.5l1.8-10.3H304l-1.8,10.1a2.4,2.4,0,0,0,0,1.2,2.112,2.112,0,0,0,.4,1,2.335,2.335,0,0,0,1.2,1,5.264,5.264,0,0,0,1.9.2h5.2Z" fill="#f36f33"/>
    <path id="Path_66" data-name="Path 66" d="M325.8,265.8h-7.9a8.075,8.075,0,0,1-3.4-.8,4.826,4.826,0,0,1-2.3-2.9,8.843,8.843,0,0,1-.2-4.3,9.816,9.816,0,0,1,1.7-4.2,7.849,7.849,0,0,1,3.3-3,9.608,9.608,0,0,1,2-.7,12.481,12.481,0,0,1,2.1-.2h7.3l-.5,2.9h-6.7a7.773,7.773,0,0,0-1.6.2,8.049,8.049,0,0,0-1.4.9,3.543,3.543,0,0,0-1,1.2,5.27,5.27,0,0,0-.5,1.5h10.6l-.5,2.9H316.2a3.3,3.3,0,0,0,0,1.4,6.118,6.118,0,0,0,.5,1.2,2.836,2.836,0,0,0,1,.9,2.9,2.9,0,0,0,1.4.3h7.1Z" fill="#f36f33"/>
    <path id="Path_67" data-name="Path 67" d="M341.3,265.8h-7.1a7.613,7.613,0,0,1-2.1-.3,4.5,4.5,0,0,1-2.8-2.9,9.1,9.1,0,0,1-.3-4.7,11.671,11.671,0,0,1,1.8-4.6,7.319,7.319,0,0,1,3.6-3,9.485,9.485,0,0,1,3.2-.6h6.5l-.5,3.1h-6.7a3.091,3.091,0,0,0-2.7,1.8,12.6,12.6,0,0,0-1.2,3.6,5.572,5.572,0,0,0,.2,3.2,2.127,2.127,0,0,0,2.1,1.5h6.6Z" fill="#f36f33"/>
    <path id="Path_68" data-name="Path 68" d="M357.5,257.6a5.1,5.1,0,0,0-.5-3.8,3.943,3.943,0,0,0-3.5-1.6,5.281,5.281,0,0,0-4,1.7,7.075,7.075,0,0,0-1.7,3.7,6.866,6.866,0,0,0,.2,3.9c.6,1.2,1.9,1.7,4,1.7a4.851,4.851,0,0,0,4-1.7,8.834,8.834,0,0,0,1.5-3.9m4.1.1c-.5,3.1-1.8,5.4-3.8,6.7a11.384,11.384,0,0,1-6.5,1.6c-3,0-5.1-.6-6.3-1.9-1.3-1.4-1.7-3.6-1.2-6.7a9.683,9.683,0,0,1,3.1-5.9,10.905,10.905,0,0,1,7.2-2.3c3.3,0,5.6.7,6.7,2.2,1,1.4,1.2,3.5.8,6.3" fill="#f36f33"/>
    <path id="Path_69" data-name="Path 69" d="M378.8,265.8h-5.1l-5.8-12-2,12H362l2.8-16.2H370l5.6,12.2,2.1-12.2h3.9Z" fill="#f36f33"/>
    <path id="Path_70" data-name="Path 70" d="M264.6,263.1c-.1,0-.3-.3-.3-.4l-.2-.2a.215.215,0,0,0-.2-.2h0a7.892,7.892,0,0,1-1.2-3,9.658,9.658,0,0,1,.2-3.8,8.17,8.17,0,0,1,2.6-3.9c.1-.1.2-.2.3-.2.2-.1.9-.6,1-.6h0a.349.349,0,0,1,.2-.1,4.418,4.418,0,0,1,1.6-.6,8.264,8.264,0,0,1,5.8.5l.4.2h0s-.2-.1-.2-.2c-.3-.2-.4-.3-.7-.5a8.508,8.508,0,0,0-6.6-.9c-.4.1-.8.3-1.2.4a5.973,5.973,0,0,0-1.1.6,7.05,7.05,0,0,0-.9.7l-.2.2-.6.6c-.1.1-.2.3-.4.5-.1.2-.2.3-.3.5a10.907,10.907,0,0,0-.6,1.1,8.178,8.178,0,0,0-.6,4.9c0,.1.1.6.1.7v.2a1.854,1.854,0,0,1,.2.7c.3.6.5,1.1.8,1.6a11.485,11.485,0,0,0,.8,1,5.718,5.718,0,0,0,.8.7,9.909,9.909,0,0,0,1.7,1.1h.1l-.6-.5c0-.3-.7-1-.7-1.1m-.1-2.7a3.629,3.629,0,0,1,.3.7,2.544,2.544,0,0,0-.2-.7,6.674,6.674,0,0,1,1.9-6.3,6.087,6.087,0,0,1,2.7-1.6,6.777,6.777,0,0,1,7.3,2.3,6.136,6.136,0,0,1,1.1,2.3c0-.2-.1-.6-.1-.8a6.6,6.6,0,0,0-1.2-2.7,1.381,1.381,0,0,0-.3-.4l-.6-.6-.1-.1a6.917,6.917,0,0,0-6.5-1.3,4.351,4.351,0,0,0-1.9,1c-.1.1-.5.4-.6.5a4.349,4.349,0,0,0-.6.7,4.616,4.616,0,0,0-.9,1.5,8.327,8.327,0,0,0-.7,3.2,6.2,6.2,0,0,0,.4,2.3m1.1-2a2.614,2.614,0,0,1,.3-.8,6.015,6.015,0,0,1,.9-1.3.1.1,0,0,1,.1-.1l.1-.1c.1-.1.2-.2.3-.2a5.347,5.347,0,0,1,3.2-1.1,5.588,5.588,0,0,1,4.4,2.2,3.923,3.923,0,0,1,.8,1.4c.1,0,.2.6.2.8a5.363,5.363,0,0,1-1.2,4.6c-.1.1-.2.2-.2.3l-.2.2a2.181,2.181,0,0,0,.5-.4l.9-.9a5.906,5.906,0,0,0,1.2-3.5,5.755,5.755,0,0,0-8.4-5.1,5.3,5.3,0,0,0-2.6,2.9,6.579,6.579,0,0,0-.4,1.5Zm-4.1,4.4c0-.1-.1-.1-.1-.2a18.341,18.341,0,0,1-1.3-2.4c-.1-.3-.2-.7-.3-1s-.2-1.5-.3-1.9a9.715,9.715,0,0,1,1.3-5.3,9.35,9.35,0,0,1,1.4-1.9l.4-.4.4-.4a15.26,15.26,0,0,1,1.6-1.1,2.507,2.507,0,0,0,.7-.4c-.2,0-.5.1-.6.1a8.509,8.509,0,0,0-1.7.6,11.354,11.354,0,0,0-2.3,1.5,11.988,11.988,0,0,0-1.1,1.2,9.122,9.122,0,0,0-2,4.2,10.02,10.02,0,0,0,1.1,7,1.332,1.332,0,0,1,.3.5l.1.1a3.916,3.916,0,0,0,.8,1,4.62,4.62,0,0,0,.7.7,9.8,9.8,0,0,0,9.8,2.3c.3-.1.5-.2.8-.3-.1,0-.4.1-.6.1a6.054,6.054,0,0,1-1.9,0,9.4,9.4,0,0,1-5.2-1.9c-.1-.1-.1-.1-.2-.1a.1.1,0,0,1-.1-.1h0a3.735,3.735,0,0,1-.7-.6c-.2-.3-.8-1-1-1.3" fill="#066195" fill-rule="evenodd"/>
    <path id="Path_71" data-name="Path 71" d="M267.5,263.1a4.13,4.13,0,0,1-.7-1.1,2.163,2.163,0,0,0,1.2-1.1h-1.5c0-.2-.1-.4-.1-.7v-.6h1.5a1.669,1.669,0,0,0-1.2-1.1,4.13,4.13,0,0,1,.7-1.1,3.2,3.2,0,0,1,1.9,2.9,2.921,2.921,0,0,1-1.8,2.8m6.2.4a4.13,4.13,0,0,1-1.1.7,2.163,2.163,0,0,0-1.1-1.2v1.5h-1.2V263a1.669,1.669,0,0,0-1.1,1.2,4.13,4.13,0,0,1-1.1-.7,3.116,3.116,0,0,1,2.9-1.8,3.045,3.045,0,0,1,2.7,1.8m.4-6.2a4.13,4.13,0,0,1,.7,1.1,2.163,2.163,0,0,0-1.2,1.1h1.5v1.3h-1.5a1.669,1.669,0,0,0,1.2,1.1,4.13,4.13,0,0,1-.7,1.1,3.2,3.2,0,0,1-1.9-2.9,3.292,3.292,0,0,1,1.9-2.8m-3.3-1.4h.6v1.5a1.669,1.669,0,0,0,1.1-1.2,4.13,4.13,0,0,1,1.1.7,3.163,3.163,0,0,1-5.8,0,4.13,4.13,0,0,1,1.1-.7,2.163,2.163,0,0,0,1.1,1.2v-1.5h.8m0,3.2a1.1,1.1,0,1,1-1.1,1.1,1.11,1.11,0,0,1,1.1-1.1" fill="#f36f33" fill-rule="evenodd"/>
    <path id="Path_72" data-name="Path 72" d="M352,425a3.608,3.608,0,0,1-1.9-5.1c1-2.3,3-3.3,5.3-2.3a3.657,3.657,0,0,1,1.9,5.1A3.84,3.84,0,0,1,352,425m2.5-5.9c-1-.4-1.8.2-2.4,1.4-.6,1.5-.4,2.5.7,2.9.9.4,1.8-.1,2.4-1.4.7-1.6.4-2.5-.7-2.9" fill="#a87d50"/>
    <path id="Path_73" data-name="Path 73" d="M365.7,422.9l-2-.5-.4,1.4,2.7.7-.2.6a.854.854,0,0,1-1.1.7l-1.7-.4-.7,2.8-1-.3c-.7-.2-1-.6-.8-1.3l1.3-5.1c.2-.9.9-1.2,1.9-1l3.6.9-.2.7a1.022,1.022,0,0,1-1.4.8" fill="#a87d50"/>
    <path id="Path_74" data-name="Path 74" d="M378.3,430.7h-.8c-1.6-.1-2.5-.8-2.4-2.1l.2-5.6a9.282,9.282,0,0,1,2.4-.3h.9c1.6.1,2.8.9,2.8,2.3a1.71,1.71,0,0,1-1.3,1.5c.7.3,1.4,1.1,1.3,1.7a2.684,2.684,0,0,1-3.1,2.5m-.1-3.4h-1l-.1,1.2c0,.2.1.3.4.4h.7c.7,0,1-.2,1-.7.1-.6-.2-.8-1-.9m.2-2.9h-1l-.1,1.4h.9c.7,0,1-.2,1-.7.1-.4-.2-.6-.8-.7" fill="#a87d50"/>
    <path id="Path_75" data-name="Path 75" d="M389.3,430.4a3.341,3.341,0,0,1-3.8-3.1l-.5-4.5.9-.1c.7-.1,1.3.3,1.4,1.3l.3,3c.1,1.3.6,1.7,1.6,1.6.8-.1,1.2-.7,1.1-1.8l-.5-4.5.9-.1c.8-.1,1.3.3,1.4,1.3l.3,3a3.115,3.115,0,0,1-3.1,3.9" fill="#a87d50"/>
    <path id="Path_76" data-name="Path 76" d="M400.2,428.4c-1.7.4-2.7,0-3-1l-.2-.7h.1a3.47,3.47,0,0,0,2.5.2c1-.3,1.2-.6,1.1-1.1s-.6-.5-1.8-.4c-1.7.1-2.5-.3-2.8-1.5a3.038,3.038,0,0,1,2.5-3.4c1.9-.5,2.8.2,3,.9l.2.8h-.1a2.843,2.843,0,0,0-2.4-.1c-1,.3-1.3.6-1.2,1.1.1.3.3.5,1.7.4,1.6-.1,2.5.4,2.8,1.5.5,1.5-.4,2.8-2.4,3.3" fill="#a87d50"/>
    <path id="Path_77" data-name="Path 77" d="M408.5,425.6c-.5.2-1.1,0-1.4-.8l-2.4-6.1,1.1-.4a.891.891,0,0,1,1.2.6l2.5,6.3Z" fill="#a87d50"/>
    <path id="Path_78" data-name="Path 78" d="M419.3,420.4a2.525,2.525,0,0,1-2.8-.4l-2.3-1.5c-.3-.2-.6-.3-.6-.4l2.2,4.1-.8.4a1.112,1.112,0,0,1-1.6-.5l-3.1-5.8.9-.5a2.6,2.6,0,0,1,2.9.3l2.6,1.8-2.1-3.9.8-.4a1.034,1.034,0,0,1,1.4.4l3.2,6Z" fill="#a87d50"/>
    <path id="Path_79" data-name="Path 79" d="M427.3,415.1l-.7.5c-1.6,1.2-3.2,1.1-4.4-.7l-.8-1a8.714,8.714,0,0,1-1.1-1.8,1.279,1.279,0,0,1,.4-1.9l3.4-2.5.3.4a1.223,1.223,0,0,1-.3,1.8l-1.9,1.4c.2.3.5.8.7,1.1l2.4-1.8.5.6a.956.956,0,0,1-.4,1.4l-1.5,1.1.2.2c.5.7.9.7,1.8.1l.5-.3a7.993,7.993,0,0,0,1.3-1.3l.5.7c.3.5.2,1.1-.9,2" fill="#a87d50"/>
    <path id="Path_80" data-name="Path 80" d="M434,409.3c-1.2,1.2-2.3,1.4-3.1.6l-.5-.5h0a4.082,4.082,0,0,0,2.3-1.1c.7-.7.8-1.1.4-1.5-.3-.3-.7-.1-1.8.5-1.4.9-2.3,1-3.2.1-1-1-.9-2.8.5-4.1s2.5-1.2,3.1-.7l.6.6h0a3.115,3.115,0,0,0-2.1,1.1c-.8.7-.8,1.2-.5,1.5.2.2.5.3,1.7-.5,1.4-.9,2.4-1,3.2-.1,1,1.1.9,2.7-.6,4.1" fill="#a87d50"/>
    <path id="Path_81" data-name="Path 81" d="M440.9,401.5c-1,1.4-2.1,1.7-3,1l-.6-.5h0a3.912,3.912,0,0,0,2.1-1.4c.6-.8.6-1.2.2-1.5s-.8,0-1.7.8c-1.3,1.1-2.2,1.3-3.1.6-1.1-.8-1.3-2.6-.1-4.2,1.2-1.5,2.3-1.6,2.9-1.1l.7.5h0a3.686,3.686,0,0,0-2,1.3c-.6.8-.6,1.3-.3,1.6.3.2.5.2,1.6-.8,1.2-1.1,2.2-1.3,3.2-.5,1.3,1,1.4,2.6.1,4.2" fill="#a87d50"/>
    <path id="Path_82" data-name="Path 82" d="M449.8,386.6l-.4.8c-.9,1.8-2.3,2.4-4.2,1.5l-1.2-.6c-.6-.3-1.3-.7-1.8-1a1.381,1.381,0,0,1-.5-1.9l1.8-3.8.5.2a1.125,1.125,0,0,1,.6,1.7l-1,2.1a4.494,4.494,0,0,0,1.2.6l1.3-2.7.7.3c.5.2.6.8.3,1.4l-.8,1.7.3.1c.8.4,1.1.2,1.6-.7l.2-.5a5.776,5.776,0,0,0,.6-1.7l.7.4c.5.3.7.9.1,2.1" fill="#a87d50"/>
    <path id="Path_83" data-name="Path 83" d="M454,375.1c-.2.8-.8,1.2-2.1,1.6l-1.3.4a8.138,8.138,0,0,0,2,2.1l-.3.9a.82.82,0,0,1-1.2.5,2.507,2.507,0,0,1-.7-.4,8.847,8.847,0,0,1-1.8-2.5l-1.4.5a9.371,9.371,0,0,1-2.8.6l.4-1.3c.1-.5.4-.9,1.8-1.3l1.2-.4a5.715,5.715,0,0,0-1.8-2.1l.2-.7c.2-.6.7-.8,1.1-.6.6.2,1.4,1.3,2.3,2.8.6-.2,1.2-.4,1.6-.5a15.011,15.011,0,0,0,2.2-1.1c.6.5.8.9.6,1.5" fill="#a87d50"/>
    <path id="Path_84" data-name="Path 84" d="M450.9,362.8a2.711,2.711,0,0,0-1.1,2.1,2.094,2.094,0,0,0,1.7,2.5,2.162,2.162,0,0,0,2.7-1.8,3.035,3.035,0,0,0-.4-2.2v-.1l.8.1c1,.2,1.6,1.3,1.4,2.8a3.906,3.906,0,0,1-4.6,3.4,4.048,4.048,0,0,1-3.5-4.8c.2-1.5,1.1-2.3,2.2-2.1l.8.1Z" fill="#a87d50"/>
    <path id="Path_85" data-name="Path 85" d="M456.6,355.2v.9a2.785,2.785,0,0,1-3.2,3.1h-1.3a13.61,13.61,0,0,1-2.1-.2,1.406,1.406,0,0,1-1.3-1.5l.1-4.2h.5a1.135,1.135,0,0,1,1.2,1.3V357a5.7,5.7,0,0,0,1.3.1v-3h.8q.9,0,.9,1.2v1.8h.3c.8,0,1.1-.3,1.1-1.3v-.6a5.537,5.537,0,0,0-.2-1.8h.8c.7,0,1.1.4,1.1,1.8" fill="#a87d50"/>
    <path id="Path_86" data-name="Path 86" d="M455.9,345.2l.1.9c.2,2-.7,2.9-2.6,3.1l-4.9.6-.1-.9c-.1-.8.3-1.3,1.2-1.4l3.4-.4c1-.1,1.3-.4,1.2-1.4v-.3a12.258,12.258,0,0,0-.4-1.6v-.1l.7-.1c.7-.1,1.2.3,1.4,1.6" fill="#a87d50"/>
    <path id="Path_87" data-name="Path 87" d="M453.9,335.7l.2.9c.5,1.9-.3,3-2.2,3.5l-4.8,1.2-.2-.9c-.2-.8.1-1.3,1-1.5l3.3-.8c1-.2,1.2-.6,1-1.5l-.1-.3a5.712,5.712,0,0,0-.6-1.5v-.1l.7-.2c.9-.3,1.4,0,1.7,1.2" fill="#a87d50"/>
    <path id="Path_88" data-name="Path 88" d="M450.8,326.4l.3.8c.8,1.9.2,3.3-1.8,4.1l-1.2.5c-.7.3-1.4.5-2,.7a1.411,1.411,0,0,1-1.8-.9l-1.6-3.9.5-.2a1.089,1.089,0,0,1,1.6.7l.9,2.2c.4-.1.9-.3,1.3-.4l-1.1-2.8.7-.3c.5-.2,1,.1,1.3.8l.7,1.7.3-.1c.8-.3.9-.7.5-1.7l-.2-.5a5.072,5.072,0,0,0-.9-1.6l.8-.3c.6-.3,1.1-.1,1.7,1.2" fill="#a87d50"/>
    <path id="Path_89" data-name="Path 89" d="M445,315.4a2.476,2.476,0,0,1-.3,2.8l-1.4,2.3a2.146,2.146,0,0,1-.4.7l4-2.4.4.8a1.1,1.1,0,0,1-.4,1.6l-5.7,3.3-.5-.9a2.414,2.414,0,0,1,.2-2.9l1.7-2.7-3.8,2.2-.5-.8a1,1,0,0,1,.3-1.4l5.9-3.4Z" fill="#a87d50"/>
    <path id="Path_90" data-name="Path 90" d="M433.7,309.2a2.554,2.554,0,0,0,.8,2.2,2.026,2.026,0,0,0,3,.4,2.115,2.115,0,0,0,.4-3.2,2.708,2.708,0,0,0-1.9-1.2h0l.6-.5c.8-.6,2-.3,3,.9a4.026,4.026,0,0,1-.6,5.7,4.1,4.1,0,0,1-5.9-.7c-1-1.2-.9-2.4-.1-3l.7-.6Z" fill="#a87d50"/>
    <path id="Path_91" data-name="Path 91" d="M432,299.8l.6.6c1.5,1.4,1.6,2.9.1,4.5l-.9,1a17.9,17.9,0,0,1-1.5,1.4,1.411,1.411,0,0,1-2-.1l-3.1-2.9.3-.4a1.184,1.184,0,0,1,1.8,0l1.7,1.6a8.122,8.122,0,0,0,1-.9l-2.2-2.1.5-.6c.4-.4.9-.4,1.5.2l1.3,1.3.2-.2c.6-.6.6-1-.2-1.7l-.4-.4a8.278,8.278,0,0,0-1.5-1.1l.6-.6c.6-.6,1.2-.6,2.2.4" fill="#a87d50"/>
    <path id="Path_92" data-name="Path 92" d="M274.8,396c-.3,1.7-2.5,6.3-4.9,9.8-5.9,8.6-7.7,9.5-10.8,9.5a2.5,2.5,0,0,1-2.7-2.3,1.759,1.759,0,0,1,.1-.6l.3-1.5a4.948,4.948,0,0,0,2.1.5c1.6,0,2.5-1,3.4-2.5a44.7,44.7,0,0,1-2.4-13.6v-1.2h2.6a2.248,2.248,0,0,1,2.4,2.1v.9a55.073,55.073,0,0,0,.8,7.1,38.949,38.949,0,0,0,5.1-10.2h2.4c1.2,0,1.8.5,1.8,1.3-.1.3-.1.4-.2.7" fill="#a87d50"/>
    <path id="Path_93" data-name="Path 93" d="M286.6,403.9h-2.4v.1c0,2.1,2,2.6,3.7,2.6a8.919,8.919,0,0,0,5-1.2l-.2,1.1c-.3,1.9-1.4,3.9-6.6,3.9-3.1,0-6.8-1.9-6.8-6.8,0-3.5,2.5-10,9.3-10,1.8,0,6.4,1.2,6.4,5.2-.1,3.4-1.9,5.1-8.4,5.1m1.5-6.5c-2,0-3,1-3.6,3.2H287c2.6,0,3.5-.2,3.5-1.7a2.261,2.261,0,0,0-2.4-1.5" fill="#a87d50"/>
    <path id="Path_94" data-name="Path 94" d="M314.6,400.8l-.6,2.5c-1.2,5.2-2.7,7.2-8.4,7.2-2.4,0-5.8-.8-5.8-4.6,0-4.4,4.3-5.7,8.9-5.7h1.2l.2-.7a4.331,4.331,0,0,0,.1-.5c0-1.1-1.1-1.6-2.9-1.6a7.712,7.712,0,0,0-5.4,1.7l.3-1.7c.3-1.6,2-3.9,6.6-3.9,3.8,0,6.1,2.3,6.1,5.1-.2,1.2-.2,1.7-.3,2.2m-6.8,2.5c-1.5,0-3.2.3-3.2,2.3,0,.9.6,1.3,1.9,1.3a2.412,2.412,0,0,0,2.4-2.1l.3-1.4h-1.4Z" fill="#a87d50"/>
    <path id="Path_95" data-name="Path 95" d="M331.6,396.1l-.4,1.9h-.1a3.233,3.233,0,0,0-1.7-.3c-1.7,0-2.7.9-3.1,2.8l-2,9.6H323c-1.8,0-2.9-.7-2.9-2.5,0-.3.1-.8.1-1.2l1.5-7.1c.7-3.2,3-5.7,6.6-5.7,2.3,0,3.3.9,3.3,2a.446.446,0,0,1,0,.5" fill="#a87d50"/>
    <path id="Path_96" data-name="Path 96" d="M348.7,397.4l-.3,1.4a6.586,6.586,0,0,0-4.4-1.4c-1,0-3,.1-3,1.5,0,.6.4.9,3.1,1.6,2.1.6,3.7,2,3.7,3.9s-1,6-7.3,6c-3.8,0-5.3-1.5-5.3-2.9a3.751,3.751,0,0,1,.1-1l.3-1.5a6.3,6.3,0,0,0,4.3,1.5h.2c1.2,0,2.8-.1,2.8-1.5,0-.7-.7-.9-3-1.7l-.3-.1c-2.4-.8-3.3-2-3.3-3.7,0-2.2,1.5-6,7.5-6,3,0,5.1,1.1,5.1,3a1.644,1.644,0,0,0-.2.9" fill="#a87d50"/>
    <path id="Path_97" data-name="Path 97" d="M226.9,382.2c-1.1-.5-4.6-4.6-5.6-5.8-1-1.1-1.7-2-2.6-3.1a21.284,21.284,0,0,1-2.5-3.4l-.5-.4c-.2-.2-.3-.4-.5-.6a121.155,121.155,0,0,1-20.3-43.6,126.307,126.307,0,0,1-.4-56.7c5.9-25.2,17.4-43.5,34-60.3a37.907,37.907,0,0,1,4.2-3.8c2.2-2,12-10.1,13.7-10.4.2-.2.1-.2.3-.4.5-.4,2-1.3,2.6-1.7a126.494,126.494,0,0,1,22.8-11.1c27.4-9.9,60.4-9.9,87.4,1.5l5.6,2.4c.6.1.3.4.5-.2-.4.1-2.9-1.9-3.6-2.3a112.193,112.193,0,0,0-11.3-6.7A124.254,124.254,0,0,0,234,176.9a125.121,125.121,0,0,0-15,9.8c-5.8,4.1-8.5,7.4-13.1,11.5l-3,3.1c-3.2,3.4-5.5,6.6-8.2,10-1.9,2.3-3.2,4.6-4.9,7.1-1.6,2.4-3,4.9-4.5,7.5a123.19,123.19,0,0,0-11.5,89.3c.4,1.6,2.8,9.1,2.7,9.9a5.306,5.306,0,0,1,.8,1.7c.2.5.4,1.2.7,1.8,1.1,2.9,2.8,7.2,4.2,9.9,4.4,8.7,8.3,15.5,14.3,23,6.7,8.4,7.4,8.5,13.3,14.4a96.771,96.771,0,0,0,12.6,10.2,118.724,118.724,0,0,0,26,14.1,6.211,6.211,0,0,0,1,.3l-9-6.3c-2.1-1.6-12.8-10.5-13.5-12" fill="#016196" fill-rule="evenodd"/>
    <path id="Path_98" data-name="Path 98" d="M223.3,341.5c1.5,3,4.6,8.2,5.2,9.4.1-.3-2.8-8.5-3.1-9.8a102.888,102.888,0,0,1-3.7-34.9,100.349,100.349,0,0,1,175.6-59c9.2,10.6,13.8,19.3,19.2,32.6-.1-3.1-1.8-9.3-2.7-12.3A101.774,101.774,0,0,0,393,229.1c-2.2-2.5-3.6-3.7-5.3-5.7-2.9-3.2-6.5-5.8-9.6-8.5-.6-.5-1.2-.9-2-1.5-27-20.5-66-25.7-98.1-12.9A102.316,102.316,0,0,0,250,217c-1.7,1.5-7.2,6.3-8.5,7.8a118.262,118.262,0,0,0-9,10.7,101.4,101.4,0,0,0-12.6,22.7c-5.4,13.3-8.7,31.4-6.7,48.2,1.6,13.4,4.4,23.4,10.1,35.1" fill="#016196" fill-rule="evenodd"/>
    <path id="Path_99" data-name="Path 99" d="M180.9,380.6c-.8-1-1.5-1.8-2.4-2.8A145.048,145.048,0,0,1,157.4,343c-1.9-4.4-4.4-10.3-5.5-15.2-2.4-4.7-5.2-22.8-5.9-28.6-3.2-27.3,2.7-56.7,14.1-80.1,6.2-12.7,11.1-19.5,19.1-29.8l5.8-6.6c1.9-1.9,3.8-4.1,6.1-6.3,8.4-8,13.6-11.6,23.3-18.2,3.3-2.2,7.1-4.1,10.5-6.1-2.3.3-6.8,2-9.1,2.8-9.9,3.5-15.3,6.2-24.4,11.1-10.2,5.5-24.5,16.6-32.7,25.3a156.436,156.436,0,0,0-15.5,18.8c-13.2,19.3-21.9,40.3-25.1,64.2a148.49,148.49,0,0,0,23.3,102.5c.9,1.4,4.4,6.2,4.8,7,.4.1.5.4.9,1a138.008,138.008,0,0,0,12.3,14.1,120.608,120.608,0,0,0,10.5,9.7,148.368,148.368,0,0,0,148.3,24.5c4-1.6,7.6-3.3,11.4-4.9-1.6,0-6.4,1.3-8.5,1.7a151.8,151.8,0,0,1-27.7,2.5,148.686,148.686,0,0,1-79.8-23.5c-1-.7-1.8-1.2-2.9-1.9-.5-.3-.9-.6-1.5-1a3.04,3.04,0,0,1-.7-.5l-.3-.3-.2-.2c-1.8-.6-8.7-6.5-10.8-8.3-3.4-2.9-13.8-12.4-16.3-16.1" fill="#016196" fill-rule="evenodd"/>
    <path id="Path_100" data-name="Path 100" d="M339,294.2c-7.5,0-12.1,2.5-15.2,7.6-.2-4.6-3.3-7.6-9.8-7.6H273.6c-8.1,0-13,4.8-14.6,12.3l-1.4,6.5h39c-2.5,4.3-5.3,7.4-9.1,12.2L271.1,346c-6.3,8.1-10.3,16-11.8,23.4a16.7,16.7,0,0,0-.4,3.7c0,6.3,4.5,7.9,9.8,7.9h10.4l2-8.9c1.4-5.9,5.8-14.7,10.3-20.8l20-26.7c3.2-4.3,6.1-8.4,8.3-11.9l-7,32.7c12.1,3,21.2,1.6,28.2,1.6,5.8,0,9-2.3,9,5.6,0,6.5-2,9.9-16.6,9.9-10.4,0-17.2.2-24.5-4.6l-1.5,7.4a20.765,20.765,0,0,0-.5,4c0,9.1,9.1,13.7,24.9,13.7,20.6,0,39.5-11.2,39.5-33.4,0-19-20.5-22.7-26.9-22.7-3.7,0-4.4.3-7.4.4l3.3-15.2h23.2c8.8,0,14.4-4.4,15.7-11.5l1.3-6.5H339Z" fill="url(#linear-gradient-2)"/>
    <path id="Path_101" data-name="Path 101" d="M395.4,303.2l-1.8,1.7c-.4.5-.5.5-1.1,1.3l-3,5.2c-.1.2-.5.3-1.7-.1-.2,0-.9,12.9-.9,16.5a28.518,28.518,0,0,1-6.5,56.1,29.387,29.387,0,0,1-11.5-2.1,110.418,110.418,0,0,1-10,11.7,3.227,3.227,0,0,1,.9,2.7l-.7,5.9a7.628,7.628,0,0,0,.1,1.7l.4,2.5c.1.4.1.7.7.9l1.4.5h0l1.4.5c.6.2.8-.1,1.1-.3l1.8-1.8c.4-.5.5-.5,1.1-1.3l2.9-5.2a3.668,3.668,0,0,1,1.7-1.5h.6c1.7,0,2.5,2.1,2.6,2.4l1.4,5.8a8.359,8.359,0,0,0,.7,1.6l1.3,2.2c.2.3.3.6.9.6h1.5l1.5-.1c.6,0,.7-.3.9-.7l1.1-2.3c.2-.6.3-.7.6-1.6l1-5.9a3.6,3.6,0,0,1,1.1-2c.2-.1.4-.1.6-.2,1.6-.6,3.1,1.1,3.2,1.4l3.2,5a4.457,4.457,0,0,0,1.2,1.2l1.9,1.6c.3.2.5.5,1.1.2l1.4-.6h0l1.4-.6a.792.792,0,0,0,.6-.9l.3-2.5a9.484,9.484,0,0,0,0-1.7l-1.1-5.8a3.914,3.914,0,0,1,.3-2.2c.2-.1.3-.2.5-.3,1.4-1.1,3.3,0,3.5.2l4.8,3.6a11.544,11.544,0,0,0,1.5.8l2.4.9c.3.1.7.3,1.1-.1l1.1-1h0l1.1-1c.5-.4.3-.7.3-1.1l-.6-2.5a11.616,11.616,0,0,0-.6-1.6l-3-5.1a4.057,4.057,0,0,1-.5-2.2c.1-.2.2-.3.3-.5.9-1.5,3.1-1.1,3.4-1l5.7,1.7a6.242,6.242,0,0,0,1.7.2h2.5a.934.934,0,0,0,1-.5l.7-1.3h0l.7-1.3a.878.878,0,0,0-.1-1.1l-1.4-2.1a9.475,9.475,0,0,0-1.1-1.3l-4.6-3.8a3.379,3.379,0,0,1-1.2-1.9c0-.2.1-.4.1-.6.3-1.7,2.6-2.1,2.8-2.1l5.9-.3a6.074,6.074,0,0,0,1.7-.4l2.4-.9a.941.941,0,0,0,.8-.8l.2-1.5h0l.2-1.5a.868.868,0,0,0-.5-1l-2-1.5c-.5-.3-.6-.4-1.5-.9l-5.6-2a3.527,3.527,0,0,1-1.8-1.4,1.268,1.268,0,0,0-.1-.6c-.3-1.7,1.7-2.9,2-2.9l5.5-2.3c.9-.5.9-.6,1.4-.9l2-1.6a.739.739,0,0,0,.4-1l-.3-1.5h0l-.3-1.5a.941.941,0,0,0-.8-.8l-2.4-.7a13.88,13.88,0,0,0-1.7-.3h-5.9a4.1,4.1,0,0,1-2.1-.7c-.1-.2-.2-.3-.3-.5-.8-1.5.6-3.3.8-3.4l4.4-4a5.274,5.274,0,0,0,1-1.4l1.3-2.2a.878.878,0,0,0,.1-1.1l-.8-1.3h0l-.8-1.3a.786.786,0,0,0-1-.4l-2.5.2a7.551,7.551,0,0,0-1.7.3l-5.6,2.1a3.9,3.9,0,0,1-2.3.1l-.4-.4c-1.3-1.1-.6-3.3-.4-3.5l2.7-5.3a9.036,9.036,0,0,0,.5-1.6l.5-2.5a.851.851,0,0,0-.3-1.1l-1.2-.9h0l-1.2-.9a.919.919,0,0,0-1.1-.1l-2.3,1a6.508,6.508,0,0,0-1.5.9l-4.5,3.8a3.207,3.207,0,0,1-2.1.8c-.2-.1-.3-.2-.5-.2-1.6-.6-1.6-2.9-1.5-3.2l.8-5.9a7.628,7.628,0,0,0-.1-1.7l-.4-2.5c-.1-.4-.1-.7-.7-.9l-1.4-.5h0l-1.4-.5a.6.6,0,0,0-.4-.1,1.1,1.1,0,0,0-.9.4" fill="url(#linear-gradient-3)"/>
  </g>
</svg>
