<svg xmlns="http://www.w3.org/2000/svg" width="99.962" height="99.962" viewBox="0 0 99.962 99.962">
  <path id="Path_144" data-name="Path 144" d="M2207.958,2020.351a12.607,12.607,0,1,1-12.7,12.607A12.733,12.733,0,0,1,2207.958,2020.351Zm0-37.351a64.783,64.783,0,0,1,7.4.516v17.293a22.154,22.154,0,0,0,13.028-13.45,50.365,50.365,0,0,1,12.607,8.108,36.288,36.288,0,0,1-66.032,0,53.251,53.251,0,0,1,12.466-7.967,22.151,22.151,0,0,0,13.169,13.309v-17.293A64.71,64.71,0,0,1,2207.958,1983Zm37.679,17.105a53.8,53.8,0,0,1,7.967,12.466,21.717,21.717,0,0,0-13.45,13.122h17.293a46.5,46.5,0,0,1,.516,7.264,49.336,49.336,0,0,1-.516,7.545h-17.293a21.136,21.136,0,0,0,13.45,13.028,51.709,51.709,0,0,1-8.108,12.606,36.238,36.238,0,0,1,.141-66.032ZM2241,2070.636a55.707,55.707,0,0,1-12.607,7.967,21.582,21.582,0,0,0-13.028-13.31v17.152a53.087,53.087,0,0,1-14.762,0v-17.152a21.8,21.8,0,0,0-13.169,13.31,50.906,50.906,0,0,1-12.466-8.108,36.338,36.338,0,0,1,66.032.141Zm-70.391-4.5a50.359,50.359,0,0,1-8.107-12.606,21.794,21.794,0,0,0,13.45-13.028h-17.293a49.14,49.14,0,0,1-.656-7.545c0-2.437.281-4.921.515-7.264h17.434a21.939,21.939,0,0,0-13.591-13.122,50.037,50.037,0,0,1,8.107-12.466,36.238,36.238,0,0,1,.141,66.032Z" transform="translate(-2158 -1983)" fill="#f37440" fill-rule="evenodd"/>
</svg>
